<?xml version="1.0" encoding="UTF-8" standalone="no" ?>
<svg xmlns="http://www.w3.org/2000/svg" xmlns:xlink="http://www.w3.org/1999/xlink" xml:space="preserve"
     version="1.1"
     id="svg2"
     x="0px" y="0px"
     viewBox="0 0 370 789">
<defs> 
<style type="text/css">
     #path3764{
        stroke-dasharray: 2100;
        stroke-dashoffset: 0;
        stroke: transparent;
        fill: none;
        -moz-animation: 3s draw ease forwards, 1s hide-stroke ease forwards 3s;
        -o-animation: 3s draw ease forwards, 1s hide-stroke ease forwards 3s;
        -webkit-animation: 3s draw ease forwards, 1s hide-stroke ease forwards 3s;
        animation: 3s draw ease forwards, 1s hide-stroke ease forwards 3s;
    }
    @-moz-keyframes draw {
        from {
            stroke-dashoffset: 2100;
            stroke: #000;
        }
        to {
            stroke-dashoffset: 0;
            stroke: #000;
        }
    }
    @-webkit-keyframes draw {
        from {
            stroke-dashoffset: 2100;
            stroke: #000;
        }
        to {
            stroke-dashoffset: 0;
            stroke: #000;
        }
    }
    @keyframes draw {
        from {
            stroke-dashoffset: 2100;
            stroke: #000;
        }
        to {
            stroke-dashoffset: 0;
            stroke: #000;
        }
    }
    @-moz-keyframes hide-stroke {
        from {
            stroke: #000;
        }
        to {
            stroke: transparent;
        }
    }
    @-webkit-keyframes hide-stroke {
        from {
            stroke: #000;
        }
        to {
            stroke: transparent;
        }
    }
    @keyframes hide-stroke {
        from {
            stroke: #000;
        }
        to {
            stroke: transparent;
        }
    }
</style>
</defs>
    <path d="m 250.09375,0.25 0,2.34375 L 62,2.59375 C 13.192817,5.8196142 5.6850321,40.641637 4.8125,54.375 l 0.0625,45.84375 -3.3125,0.0625 -0.96875,1 0,27.90625 0.9375,1.09375 3.46875,-0.0625 0,36.09375 -3.3686547,0.12627 -0.96874996,0.9375 0,20.9375 0.99999996,1 L 5.03125,189.1875 5,224.21875 l -3.3061547,0.12627 -1.03124996,1.34375 0,20.28125 1.03124996,0.875 3.3999047,-0.12627 -0.125,406.875 C 9.2159232,681.99608 25.03614,694.61136 46.375,699.75 l 281.53125,0 c 25.85828,-4.38704 39.55622,-25.21839 41.78125,-44.9375 l 0,-600.53125 C 368.71668,29.498588 350.29053,3.2261301 309.09375,3.71875 l 0,-3.46875 z M 185.75,33.53125 c 0.20265,-0.0075 0.40742,-0.01151 0.625,0 6.7399,-0.08159 6.375,9.22575 0,9.65625 -6.04974,-0.349908 -6.90701,-9.423703 -0.625,-9.65625 z m 31.1875,24.6875 c 4.12441,1.647425 4.47051,11.457495 0,12.9375 l -60.75,0 c -4.84418,-1.163175 -4.89703,-11.943397 0,-12.875 z M 343,104.1875 l 2.72179,500.03125 -314.523496,0 0,-500 312.282026,-0.0312 z"
          id="path3764" />
</svg>
